<svg viewBox="0 0 1900 1000" xmlns:xlink="http://www.w3.org/1999/xlink" xmlns="http://www.w3.org/2000/svg" data-name="Layer 1" id="Layer_1">
  <defs>
    <style>
      .cls-1 {
        fill: url(#linear-gradient-2);
      }

      .cls-2 {
        fill: #fff;
      }

      .cls-3 {
        fill: url(#linear-gradient-6);
      }

      .cls-4 {
        fill: url(#linear-gradient-5);
      }

      .cls-5 {
        fill: url(#linear-gradient-7);
      }

      .cls-6 {
        fill: url(#linear-gradient-3);
      }

      .cls-7 {
        fill: url(#linear-gradient);
      }

      .cls-8 {
        fill: url(#linear-gradient-4);
      }

      .cls-9 {
        fill: url(#linear-gradient-8);
      }
    </style>
    <linearGradient gradientUnits="userSpaceOnUse" y2="482.5" x2="1077.84" y1="482.5" x1="805.19" id="linear-gradient">
      <stop stop-color="#bc0021" offset="0"></stop>
      <stop stop-color="#a51d21" offset="1"></stop>
    </linearGradient>
    <linearGradient xlink:href="#linear-gradient" y2="322.8" x2="897.86" y1="322.8" x1="613.75" id="linear-gradient-2"></linearGradient>
    <linearGradient xlink:href="#linear-gradient" y2="307.99" x2="443.78" y1="307.99" x1="286.85" id="linear-gradient-3"></linearGradient>
    <linearGradient xlink:href="#linear-gradient" y2="307.99" x2="570.62" y1="307.99" x1="486.06" id="linear-gradient-4"></linearGradient>
    <linearGradient xlink:href="#linear-gradient" y2="219.91" x2="1287.66" y1="219.91" id="linear-gradient-5"></linearGradient>
    <linearGradient xlink:href="#linear-gradient" y2="307.99" x2="1418.23" y1="307.99" x1="1333.67" id="linear-gradient-6"></linearGradient>
    <linearGradient xlink:href="#linear-gradient" y2="390.43" x2="1287.66" y1="390.43" x1="1203.1" id="linear-gradient-7"></linearGradient>
    <linearGradient xlink:href="#linear-gradient" y2="307.99" x2="1617.44" y1="307.99" x1="1460.51" id="linear-gradient-8"></linearGradient>
  </defs>
  <g>
    <polygon points="805.19 618.8 889.75 665.23 889.75 511.17 1077.54 399.96 1077.84 299.77 805.19 465.51 805.19 618.8" class="cls-7"></polygon>
    <polygon points="897.86 211.27 613.75 36.97 613.75 608.63 698.31 608.63 698.31 187.96 816.52 260.72 897.86 211.27" class="cls-1"></polygon>
    <polygon points="359.22 275.8 286.85 275.8 286.85 340.18 359.22 340.18 359.22 432.48 443.78 432.48 443.78 183.5 359.22 183.5 359.22 275.8" class="cls-6"></polygon>
    <rect height="417.93" width="84.56" y="99.03" x="486.06" class="cls-8"></rect>
    <polygon points="805.19 416.03 1287.66 122.75 1287.66 23.8 805.19 317.08 805.19 416.03" class="cls-4"></polygon>
    <rect height="417.93" width="84.56" y="99.03" x="1333.67" class="cls-3"></rect>
    <polygon points="1203.1 608.63 1287.66 608.63 1287.66 172.23 1203.1 223.63 1203.1 608.63" class="cls-5"></polygon>
    <polygon points="1617.44 275.8 1545.06 275.8 1545.06 183.5 1460.51 183.5 1460.51 432.48 1545.06 432.48 1545.06 340.18 1617.44 340.18 1617.44 275.8" class="cls-9"></polygon>
  </g>
  <g>
    <path d="m208.32,790.52v182.15h-35.72v-77.4l-51.16,74.42h-.22l-51.27-74.42v77.4h-35.72v-182.15h1.98l85.12,117.43,85.01-117.43h1.98Z" class="cls-2"></path>
    <path d="m252.74,794.93h35.72v177.74h-35.72v-177.74Z" class="cls-2"></path>
    <path d="m325.16,883.91c0-50.17,42.23-92.61,92.29-92.61,23.16.33,43.66,9.48,62.3,27.46l-20.62,28.11c-12.13-11.9-26.68-19.18-42.01-19.18-28.56,0-55.79,25.36-55.79,56.45s28.23,56.13,55.68,56.13c16.32,0,30.43-8.71,42.23-20.29l20.51,28.89c-15.66,15.55-34.73,27.24-61.64,27.24-51.27,0-92.95-42.23-92.95-92.18Z" class="cls-2"></path>
    <path d="m605.76,972.67l-56.57-84.02v84.02h-35.72l-.11-177.74h58c33.19,0,60.42,25.58,60.42,57.55,0,22.82-13.78,42.78-32.86,49.51l50.5,70.68h-43.66Zm-56.68-97.69l22.93.11c12.13.11,22.93-9.7,22.93-22.38s-10.92-22.38-22.93-22.38h-22.93v44.65Z" class="cls-2"></path>
    <path d="m672.22,884.02c0-51.05,41.57-92.73,92.4-92.73s92.51,41.67,92.51,92.73-41.68,92.07-92.62,92.07-92.29-41.46-92.29-92.07Zm148.74-.22c0-31.09-25.36-56.45-56.45-56.45s-56.23,25.36-56.23,56.45,25.25,56.12,56.23,56.12,56.45-25.25,56.45-56.12Z" class="cls-2"></path>
    <path d="m929.55,830.1v35.84h61.31v35.62h-61.31v71.34h-35.72v-178.4h107.17v35.61h-71.45Z" class="cls-2"></path>
    <path d="m1034.61,794.93h35.72v177.74h-35.72v-177.74Z" class="cls-2"></path>
    <path d="m1227.22,830.33h-43.66v142.35h-35.84v-142.35h-43.77v-35.39h123.27v35.39Z" class="cls-2"></path>
    <path d="m1403.73,794.49v181.49h-1.65l-105.52-102.65v99.57h-35.72v-181.27h1.76l105.3,102.43v-99.57h35.84Z" class="cls-2"></path>
    <path d="m1483.87,830.1v34.73h61.31v35.62h-61.31v36.72h71.45v35.51h-107.17v-177.74h107.17v35.17h-71.45Z" class="cls-2"></path>
    <path d="m1585.85,942.02l28.56-20.07c7.83,12.57,19.19,18.3,34.51,18.3,16.76,0,28.01-6.84,28.01-16.32,0-13.01-21.28-23.27-39.91-32.52-19.96-9.92-41.9-20.84-41.9-49.18,0-30.76,26.02-51.05,58.66-51.05,24.26,0,44.33,10.04,52.37,31.54l-26.35,18.41c-5.29-10.59-15.55-14.88-25.47-14.88-13.34,0-23.27,7.72-23.27,16.87,0,10.59,13.45,14.22,33.85,23.81,29.44,13.89,47.96,28.89,47.96,56.23,0,32.42-26.46,53.04-64.5,53.04-29.11,0-50.61-12.12-62.52-34.18Z" class="cls-2"></path>
    <path d="m1738.76,942.02l28.56-20.07c7.83,12.57,19.19,18.3,34.51,18.3,16.76,0,28.01-6.84,28.01-16.32,0-13.01-21.28-23.27-39.91-32.52-19.96-9.92-41.9-20.84-41.9-49.18,0-30.76,26.02-51.05,58.66-51.05,24.26,0,44.33,10.04,52.37,31.54l-26.35,18.41c-5.29-10.59-15.55-14.88-25.47-14.88-13.34,0-23.27,7.72-23.27,16.87,0,10.59,13.45,14.22,33.85,23.81,29.44,13.89,47.96,28.89,47.96,56.23,0,32.42-26.46,53.04-64.5,53.04-29.11,0-50.61-12.12-62.52-34.18Z" class="cls-2"></path>
  </g>
</svg>